<svg width="30" height="30" viewBox="0 0 30 30" fill="none" xmlns="http://www.w3.org/2000/svg">
<g clip-path="url(#clip0_307_10)">
<path fill-rule="evenodd" clip-rule="evenodd" d="M18.75 5.2425V24.7575C18.7501 25.0103 18.6805 25.2582 18.5489 25.4739C18.4173 25.6897 18.2287 25.8651 18.0039 25.9807C17.7792 26.0963 17.5269 26.1477 17.2748 26.1293C17.0227 26.1109 16.7806 26.0233 16.575 25.8763L8.35 20H5C4.33696 20 3.70107 19.7366 3.23223 19.2678C2.76339 18.7989 2.5 18.163 2.5 17.5V12.5C2.5 11.837 2.76339 11.2011 3.23223 10.7322C3.70107 10.2634 4.33696 10 5 10H8.35L16.575 4.125C16.7805 3.97801 17.0225 3.89047 17.2745 3.872C17.5265 3.85353 17.7787 3.90484 18.0034 4.0203C18.2281 4.13576 18.4167 4.31091 18.5484 4.52652C18.6801 4.74212 18.7499 4.98985 18.75 5.2425ZM16.25 7.43L9.8025 12.0325C9.37888 12.3359 8.87105 12.4993 8.35 12.5H5V17.5H8.35C8.87078 17.4999 9.37858 17.6625 9.8025 17.965L16.25 22.5713V7.43ZM22.8187 8.57625C23.0399 8.32928 23.3501 8.18027 23.6811 8.16198C24.0121 8.1437 24.3368 8.25764 24.5837 8.47875C25.5021 9.2987 26.2367 10.3036 26.7393 11.4275C27.2419 12.5514 27.5011 13.7689 27.5 15C27.5011 16.2312 27.2419 17.4486 26.7393 18.5725C26.2367 19.6964 25.5021 20.7013 24.5837 21.5213C24.4618 21.6325 24.3189 21.7185 24.1635 21.7743C24.0081 21.8301 23.8431 21.8545 23.6782 21.8461C23.5133 21.8378 23.3517 21.7969 23.2027 21.7257C23.0536 21.6545 22.9202 21.5545 22.8101 21.4315C22.6999 21.3085 22.6152 21.1649 22.5609 21.0089C22.5066 20.853 22.4837 20.6878 22.4936 20.523C22.5035 20.3582 22.5459 20.1969 22.6184 20.0486C22.691 19.9002 22.7922 19.7678 22.9163 19.6588C23.5727 19.0733 24.0978 18.3555 24.4569 17.5525C24.8161 16.7495 25.0012 15.8796 25 15C25 13.15 24.1975 11.4875 22.9163 10.3413C22.6693 10.1201 22.5203 9.80994 22.502 9.47895C22.4837 9.14795 22.5976 8.82324 22.8187 8.57625ZM22.0837 11.2738C22.6084 11.7423 23.0281 12.3165 23.3153 12.9587C23.6025 13.6009 23.7506 14.2965 23.75 15C23.7508 15.7035 23.6027 16.3992 23.3155 17.0414C23.0284 17.6836 22.6086 18.2578 22.0837 18.7263C21.8467 18.9368 21.5385 19.0494 21.2216 19.0412C20.9046 19.0331 20.6026 18.9048 20.3767 18.6824C20.1508 18.46 20.0178 18.16 20.0048 17.8432C19.9917 17.5265 20.0994 17.2166 20.3063 16.9763L20.4163 16.8638C20.9288 16.4038 21.25 15.74 21.25 15C21.2515 14.3599 21.0061 13.7438 20.565 13.28L20.4163 13.1363C20.1728 12.9142 20.0269 12.605 20.0102 12.2759C19.9936 11.9468 20.1076 11.6244 20.3273 11.379C20.5471 11.1335 20.855 10.9847 21.1839 10.965C21.5128 10.9453 21.8362 11.0562 22.0837 11.2738Z" fill="white"/>
</g>
<defs>
<clipPath id="clip0_307_10">
<rect width="30" height="30" fill="white"/>
</clipPath>
</defs>
</svg>
